<svg width="5461" height="2373" viewBox="0 0 5461 2373" fill="none" xmlns="http://www.w3.org/2000/svg">
<path fill-rule="evenodd" clip-rule="evenodd" d="M5461 0H0V1046C293.076 499.094 819.611 711.878 1388.38 941.729C1718.15 1075 2062.11 1214 2383 1214C2741.01 1214 2979.88 1092.69 3213.46 974.065C3428.75 864.728 3639.55 757.674 3935 750C4192.49 743.312 4395.46 856.833 4588.76 964.945C4857.91 1115.48 5108.31 1255.52 5461 1046V0ZM0 1709.5V2373H5461V1709.5C5208.66 1855.8 5024.93 1766.75 4790.01 1652.89C4587.38 1554.67 4346.67 1438 3991 1438C3655.83 1438 3438.56 1567.84 3212.2 1703.12C2914.5 1881.04 2601.07 2068.35 1983 1982C1803.6 1961.2 1576.03 1885.47 1336.03 1805.61C837.584 1639.74 285.523 1456.04 0 1709.5Z" fill="white"/>
<path d="M0 1046V1709.5C285.523 1456.04 837.584 1639.74 1336.03 1805.61C1576.03 1885.47 1803.6 1961.2 1983 1982C2601.07 2068.35 2914.5 1881.04 3212.2 1703.12C3438.56 1567.84 3655.83 1438 3991 1438C4346.67 1438 4587.38 1554.67 4790.01 1652.89C5024.93 1766.75 5208.66 1855.8 5461 1709.5V1046C5108.31 1255.52 4857.91 1115.48 4588.76 964.945C4395.46 856.833 4192.49 743.312 3935 750C3639.55 757.674 3428.75 864.728 3213.46 974.065C2979.88 1092.69 2741.01 1214 2383 1214C2062.11 1214 1718.15 1075 1388.38 941.729C819.611 711.878 293.076 499.094 0 1046Z" fill="url(#paint0_linear_34_132)"/>
<defs>
<linearGradient id="paint0_linear_34_132" x1="2730" y1="-154" x2="2730" y2="4046" gradientUnits="userSpaceOnUse">
<stop stop-color="white"/>
<stop offset="0.386667" stop-color="#EAFFF6"/>
<stop offset="0.725714" stop-color="#20715B"/>
</linearGradient>
</defs>
</svg>
