<svg width="2283" height="480" viewBox="0 0 2283 480" fill="none" xmlns="http://www.w3.org/2000/svg">
<rect width="2283" height="480" fill="#EBEBEB"/>
<rect y="-88" width="2283" height="825" fill="white"/>
<path d="M-0.000244141 737.326H533.439C579.512 646.214 722.627 601.071 926.5 616V399.223C569.074 387 569.074 342.141 569.074 313.17C195.278 315.708 175.761 371.475 155.009 430.773C140.928 471.008 126.279 512.869 -0.000244141 540.831V737.326Z" fill="#1D6450"/>
<path d="M926.5 737.326V616C722.627 601.071 579.512 646.214 533.439 737.326H926.5Z" fill="#20715B"/>
<path d="M926.5 355.314C917.76 355.314 908.546 355.285 899 355.204C886.778 355.1 874.012 354.911 861 354.585C841.218 354.091 820.868 353.282 801 351.984C758.31 349.195 717.845 344.147 690.016 335.098C670.417 328.725 657.18 321.364 654.037 313.45C623.851 313.078 595.572 312.99 569.074 313.17C569.074 342.141 569.074 387 926.5 399.223V355.314Z" fill="#6E9382"/>
<path d="M928.12 182C439 182 73 182 -0.000244141 253.224V291.645C97.6171 320.625 422.533 312.502 572.789 304.818C592.312 280.06 691.204 233.246 926.5 223.036L928.12 182Z" fill="#124636"/>
<path d="M654.037 313.45C645.505 291.963 711.404 266.408 926.5 245.54V223.036C691.204 233.246 592.312 280.06 572.789 304.818C570.272 308.01 569.074 310.836 569.074 313.17C595.572 312.99 623.851 313.078 654.037 313.45Z" fill="#6E9382"/>
<path d="M-0.000244141 291.645V540.831C126.279 512.869 140.928 471.008 155.009 430.773C175.761 371.475 195.278 315.708 569.074 313.17C569.074 310.836 570.272 308.01 572.789 304.818C422.533 312.502 97.6171 320.625 -0.000244141 291.645Z" fill="#105441"/>
<path fill-rule="evenodd" clip-rule="evenodd" d="M926.5 245.54L931.5 245.47L690.016 335.098C670.417 328.725 657.18 321.364 654.037 313.45C645.505 291.963 711.404 266.408 926.5 245.54Z" fill="#A8D0D9"/>
<path d="M928.12 182L926.5 223.036C1232 209.781 1275 296.185 1277 304.818C1766.77 313.132 1860.16 205.22 1736.7 199.652C1736.13 199.629 1735.57 199.605 1735 199.582C1391.77 185.537 1277 182 928.12 182Z" fill="#124636"/>
<path d="M926.5 355.314V399.223C1284 399.223 1279 313.45 1277 304.818C1275 296.185 1232 209.781 926.5 223.036V245.54C928.626 245.504 930.75 245.476 932.87 245.457C964.676 245.169 995.812 246.788 1025 249.815C1037.38 251.099 1049.42 252.636 1061 254.389C1069.24 255.635 1077.25 256.991 1085 258.442C1157.76 272.063 1207.45 294.08 1205 313.17C1201 344.34 1011 355.314 926.5 355.314Z" fill="#6E9382"/>
<path d="M926.5 399.223V616C1139 634 1387.49 725.956 1505 574C1621 424 1831 434 1973 536C2062.17 600.055 2223 485.482 2283 399.223V253.224C2233 210 1998.04 210.378 1736.7 199.652C1860.16 205.22 1766.77 313.132 1277 304.818C1279 313.45 1284 399.223 926.5 399.223Z" fill="#1D6450"/>
<path d="M926.5 616V737.326H2283V399.223C2223 485.482 2062.17 600.055 1973 536C1831 434 1621 424 1505 574C1387.49 725.956 1139 634 926.5 616Z" fill="#20715B"/>
<path fill-rule="evenodd" clip-rule="evenodd" d="M926.5 245.54L931.5 245.47C929.835 245.488 928.169 245.511 926.5 245.54Z" fill="#124636"/>
<path d="M1025 249.815C995.812 246.788 964.676 245.169 932.87 245.457C932.413 245.461 931.957 245.465 931.5 245.47L929.316 293.458L1025 249.815Z" fill="#C5EBF3"/>
<path d="M931.5 245.47L690.016 335.098C717.845 344.147 758.31 349.195 801 351.984L929.316 293.458L931.5 245.47Z" fill="#C5EBF3"/>
<path d="M801 351.984C820.868 353.282 841.218 354.091 861 354.585L894.531 337.787L928.063 320.988L929.316 293.458L801 351.984Z" fill="#A8D0D9"/>
<path d="M1061 254.389C1049.42 252.636 1037.38 251.099 1025 249.815L929.316 293.458L928.063 320.988L994.531 287.689L1061 254.389Z" fill="#A8D0D9"/>
<path d="M1085 258.442C1077.25 256.991 1069.24 255.635 1061 254.389L994.531 287.689L928.063 320.988L927.172 340.548L1085 258.442Z" fill="#C5EBF3"/>
<path d="M861 354.585C874.012 354.911 886.778 355.1 899 355.204L927.172 340.548L928.063 320.988L894.531 337.787L861 354.585Z" fill="#C5EBF3"/>
<path d="M926.5 355.314C1011 355.314 1201 344.34 1205 313.17C1207.45 294.08 1157.76 272.063 1085 258.442L927.172 340.548L926.5 355.314Z" fill="#A8D0D9"/>
<path d="M899 355.204C908.546 355.285 917.76 355.314 926.5 355.314L927.172 340.548L899 355.204Z" fill="#A8D0D9"/>
<ellipse cx="75.9476" cy="344.309" rx="25.7147" ry="10.9509" fill="black" fill-opacity="0.1"/>
<ellipse cx="1779.71" cy="279.951" rx="25.7147" ry="10.9509" fill="black" fill-opacity="0.1"/>
<ellipse cx="1805.71" cy="279.951" rx="25.7147" ry="10.9509" fill="black" fill-opacity="0.1"/>
<ellipse cx="2045.71" cy="250.951" rx="25.7147" ry="10.9509" fill="black" fill-opacity="0.1"/>
<ellipse cx="2132.5" cy="281" rx="39.5" ry="11" fill="black" fill-opacity="0.1"/>
<ellipse cx="653.631" cy="279.819" rx="34.0869" ry="10.9509" fill="black" fill-opacity="0.1"/>
<ellipse cx="615.357" cy="267.043" rx="110.633" ry="16.4264" fill="black" fill-opacity="0.1"/>
<ellipse cx="1255" cy="302.5" rx="84" ry="16.5" fill="black" fill-opacity="0.1"/>
<ellipse cx="102.26" cy="333.357" rx="34.0869" ry="10.9509" fill="black" fill-opacity="0.1"/>
<ellipse cx="1345.3" cy="306.957" rx="90.3004" ry="26.1606" fill="black" fill-opacity="0.1"/>
<path fill-rule="evenodd" clip-rule="evenodd" d="M140.884 214.629C142.131 214.473 143.348 214.3 144.534 214.111L144.729 214.08L140.884 214.629Z" fill="#D9D9D9"/>
<path d="M115.293 292.024V330.328C116.813 331.237 118.23 331.906 119.554 332.382V312.659H123.055V333.244C124.306 333.404 125.458 333.386 126.525 333.244V300.543L133.884 298.523V292.347C127.996 292.546 121.783 292.465 115.293 292.024Z" fill="#877564"/>
<path d="M126.525 300.543V333.244C129.415 332.861 131.68 331.577 133.576 330.503L133.703 330.431L133.884 330.328V298.523L126.525 300.543Z" fill="#A9927D"/>
<path d="M123.055 333.244V312.659H119.554V332.382C120.801 332.83 121.965 333.105 123.055 333.244Z" fill="#BDA38B"/>
<path d="M62.6182 280.854C83.9206 287.024 99.1834 290.93 115.293 292.024C121.783 292.465 127.996 292.546 133.884 292.347C158.778 291.504 175.327 288.679 187.334 280.854C192.846 277.261 183.586 269.013 172.491 261.49C174.742 270.943 70.243 268.12 81.1074 259.651C68.6388 268.691 56.5379 279.093 62.6182 280.854Z" fill="#358B67"/>
<path d="M150.923 250.713C135.281 252.797 115.894 253.375 95.0017 250.095C91.157 252.578 85.7944 256.252 81.1074 259.651C70.243 268.12 174.742 270.943 172.491 261.49C166.125 257.173 159.155 253.096 154.025 250.274C153.008 250.427 151.974 250.573 150.923 250.713Z" fill="#2E6850"/>
<path d="M88.5684 224.309C74.0452 232.074 61.3453 240.568 67.2661 243.496C76.6716 246.542 85.977 248.678 95.0017 250.095C115.894 253.375 135.281 252.797 150.923 250.713C151.974 250.573 153.008 250.427 154.025 250.274C166.006 248.471 175.544 245.823 181.524 243.496C187.436 241.845 175.34 232.755 161.927 224.309C176.876 233.722 68.428 235.077 88.5684 224.309Z" fill="#358B67"/>
<path d="M109.213 214.202C103.048 216.957 96.0864 220.289 88.5684 224.309C68.428 235.077 176.876 233.722 161.927 224.309C155.655 220.36 149.871 216.922 144.729 214.08L144.534 214.111C143.348 214.3 142.131 214.473 140.884 214.629C131.677 215.781 120.854 215.98 109.213 214.202Z" fill="#2E6850"/>
<path d="M165.644 208.157C170.003 205.79 164.909 201.536 157.51 195.759C146.291 203.042 111.887 188.502 117.211 170.86C114.504 179.695 103.655 188.888 95.2871 195.979C87.8915 202.246 82.4333 206.872 86.2445 208.157C94.0946 211.145 101.819 213.072 109.213 214.202C120.854 215.98 131.677 215.781 140.884 214.629L144.729 214.08C153.937 212.601 161.221 210.225 165.644 208.157Z" fill="#358B67"/>
<path d="M133.884 170.799C128.514 157.168 121.349 157.168 117.23 170.799L117.211 170.86C111.887 188.502 146.291 203.042 157.51 195.759C149.13 189.216 137.793 180.72 133.884 170.799Z" fill="#6FB068"/>
<path fill-rule="evenodd" clip-rule="evenodd" d="M1797.43 194.792C1798.33 194.68 1799.2 194.556 1800.05 194.421L1800.19 194.398L1797.43 194.792Z" fill="#D9D9D9"/>
<path d="M1779.03 250.337V277.826C1780.13 278.478 1781.14 278.958 1782.1 279.3V265.145H1784.61V279.919C1785.51 280.034 1786.34 280.02 1787.11 279.919V256.45L1792.4 255.001V250.568C1788.16 250.711 1783.7 250.653 1779.03 250.337Z" fill="#877564"/>
<path d="M1787.11 256.45V279.919C1789.18 279.644 1790.81 278.722 1792.18 277.951L1792.27 277.9L1792.4 277.826V255.001L1787.11 256.45Z" fill="#A9927D"/>
<path d="M1784.61 279.919V265.145H1782.1V279.3C1782.99 279.621 1783.83 279.819 1784.61 279.919Z" fill="#BDA38B"/>
<path d="M1741.17 242.32C1756.48 246.748 1767.45 249.551 1779.03 250.337C1783.7 250.653 1788.16 250.711 1792.4 250.568C1810.29 249.963 1822.19 247.936 1830.82 242.32C1834.78 239.741 1828.13 233.822 1820.15 228.423C1821.77 235.207 1746.65 233.181 1754.46 227.103C1745.49 233.591 1736.79 241.056 1741.17 242.32Z" fill="#358B67"/>
<path d="M1804.65 220.689C1793.4 222.185 1779.46 222.599 1764.45 220.245C1761.68 222.027 1757.83 224.664 1754.46 227.103C1746.65 233.181 1821.77 235.207 1820.15 228.423C1815.58 225.325 1810.56 222.399 1806.88 220.373C1806.15 220.483 1805.4 220.588 1804.65 220.689Z" fill="#2E6850"/>
<path d="M1759.82 201.739C1749.38 207.312 1740.25 213.408 1744.51 215.509C1751.27 217.695 1757.96 219.228 1764.45 220.245C1779.46 222.599 1793.4 222.185 1804.65 220.689C1805.4 220.588 1806.15 220.483 1806.88 220.373C1815.49 219.08 1822.35 217.179 1826.64 215.509C1830.89 214.324 1822.2 207.801 1812.56 201.739C1823.3 208.495 1745.34 209.467 1759.82 201.739Z" fill="#358B67"/>
<path d="M1774.66 194.486C1770.23 196.463 1765.22 198.854 1759.82 201.739C1745.34 209.467 1823.3 208.495 1812.56 201.739C1808.05 198.905 1803.89 196.438 1800.19 194.398L1800.05 194.421C1799.2 194.556 1798.33 194.68 1797.43 194.792C1790.81 195.619 1783.03 195.762 1774.66 194.486Z" fill="#2E6850"/>
<path d="M1815.23 190.147C1818.36 188.449 1814.7 185.396 1809.38 181.25C1801.32 186.476 1776.58 176.042 1780.41 163.381C1778.47 169.721 1770.67 176.319 1764.65 181.408C1759.33 185.906 1755.41 189.225 1758.15 190.147C1763.79 192.292 1769.35 193.675 1774.66 194.486C1783.03 195.762 1790.81 195.619 1797.43 194.792L1800.19 194.398C1806.81 193.337 1812.05 191.631 1815.23 190.147Z" fill="#358B67"/>
<path d="M1792.4 163.337C1788.54 153.554 1783.39 153.554 1780.42 163.337L1780.41 163.381C1776.58 176.042 1801.32 186.476 1809.38 181.25C1803.36 176.554 1795.21 170.457 1792.4 163.337Z" fill="#6FB068"/>
<path d="M776.19 90.3298C771.139 81.313 762.184 73.1373 752.503 68.1459C730.737 56.9237 702.12 47.5237 675.055 52.3735C665.889 119.34 749.61 127.303 776.19 90.3298Z" fill="#4FA27C"/>
<path d="M669.097 148.918C660.825 144.586 653.172 141.665 646.184 139.867C630.994 154.877 647.431 168.621 661.307 173.377C672.214 177.116 679.179 177.359 689.357 173.377C690.04 166.895 686.219 159.721 675.615 152.731C673.674 151.452 671.506 150.18 669.097 148.918Z" fill="#4FA27C"/>
<path d="M783.665 148.918C774.494 142.413 743.302 140.041 724.09 150.664C716.299 172.809 780.627 179.648 799.705 178.517C811.182 168.081 795.458 157.135 785.8 150.413L785.799 150.412L785.797 150.41C785.044 149.887 784.328 149.388 783.665 148.918Z" fill="#4FA27C"/>
<path fill-rule="evenodd" clip-rule="evenodd" d="M743.747 189.406C740.722 188.971 737.875 188.365 735.228 187.611C714.098 181.59 705.742 166.107 721.34 152.331C722.225 151.743 723.143 151.188 724.09 150.664C716.299 172.809 780.627 179.648 799.705 178.517C795.982 181.902 789.109 185.037 777.708 187.598C771.002 189.104 764.608 189.914 758.633 190.136C755.568 190.25 752.612 190.209 749.782 190.028C747.701 189.895 745.687 189.685 743.747 189.406ZM738.903 201.818C739.006 201.818 739.109 201.817 739.212 201.816C738.927 201.819 738.654 201.981 738.478 202.258C738.573 202.109 738.665 201.962 738.755 201.818L738.903 201.818ZM697.51 237.085C695.686 239.013 692.773 240.373 689.268 241.225C668.997 246.151 628.966 234.067 665.889 216.608C671.839 213.794 678.314 213.427 684.056 214.648C696.889 217.379 706.059 228.046 697.51 237.085ZM671.469 203.873L671.847 204.192C671.609 203.991 671.311 203.942 671.037 204.048C671.185 203.991 671.329 203.932 671.469 203.873ZM653.349 193.623C651.112 193.681 648.778 193.698 646.379 193.674C606.914 193.273 549.529 181.44 606.314 146.074C616.665 139.628 628.395 135.29 646.184 139.867C630.994 154.877 647.431 168.621 661.307 173.377C672.214 177.116 679.179 177.359 689.357 173.377C688.642 180.152 683.008 186.173 675.055 190.442C672.716 191.697 668.276 192.606 662.559 193.117C659.763 193.366 656.661 193.538 653.349 193.623Z" fill="url(#paint0_linear_0_1)"/>
<path d="M721.34 203.873C723.54 206.196 725.335 208.537 726.381 210.919C726.869 212.029 727.331 213.371 727.765 214.901C731.555 211.859 735.95 206.226 738.478 202.258C738.573 202.109 738.665 201.962 738.755 201.818L738.903 201.818C739.006 201.818 739.109 201.817 739.212 201.816C752.589 201.697 756.797 196.305 758.633 190.136C755.568 190.25 752.612 190.209 749.782 190.028C749.782 195.313 745.334 196.021 742.022 196.116C741.326 196.135 740.87 195.447 741.173 194.82C741.434 194.28 741.745 193.662 742.06 193.036C742.8 191.566 743.561 190.054 743.747 189.406C740.722 188.971 737.875 188.365 735.228 187.611C734.172 198.974 726.381 203.873 721.34 203.873Z" fill="#CCA374"/>
<path d="M728.673 136.404C776.505 131.783 785.491 112.274 778.232 94.5427C777.652 93.1242 776.967 91.717 776.19 90.3298C749.61 127.303 665.889 119.34 675.055 52.3735C665.08 54.1609 655.316 57.8837 646.184 64.1642C578.07 113.985 637.238 131.51 694.619 135.498C702.287 136.031 709.922 136.322 717.218 136.416C721.151 136.467 724.986 136.461 728.673 136.404Z" fill="url(#paint1_linear_0_1)"/>
<path d="M687.682 146.074C698.111 146.074 712.141 143.42 717.853 142.092C717.844 140.365 717.644 138.482 717.218 136.416C709.922 136.322 702.287 136.031 694.619 135.498C694.22 139.006 691.586 143.438 687.682 146.074Z" fill="#A3825C"/>
<path fill-rule="evenodd" clip-rule="evenodd" d="M675.055 190.442C683.008 186.173 688.642 180.152 689.357 173.377C690.04 166.895 686.219 159.721 675.615 152.731C680.054 150.514 684.313 148.349 687.682 146.074C698.111 146.074 712.141 143.42 717.853 142.092C717.903 151.544 712.258 156.344 706.862 160.933C702.657 164.509 698.602 167.956 697.51 173.377C692.522 193.69 699.615 197.749 707.619 202.329C712.839 205.316 718.446 208.524 721.34 216.608C728.673 237.085 731.44 263.109 727.765 275.694C725.644 277.591 721.245 278.9 715.763 279.747C717.06 245.617 715.885 235.433 706.217 223.433C700.482 216.314 694.263 212.219 687.93 208.049C681.613 203.89 675.183 199.655 669.004 192.27C671.624 191.785 673.695 191.172 675.055 190.442Z" fill="#CCA374"/>
<path d="M684.056 214.648C696.889 217.379 706.059 228.046 697.51 237.085C695.686 239.013 692.773 240.373 689.268 241.225C685.836 248.868 680.569 257.258 676.262 264.119C671.745 271.314 668.284 276.828 669.097 278.04C670.763 280.521 698.582 282.401 715.763 279.747C717.06 245.617 715.885 235.433 706.217 223.433C700.482 216.314 694.263 212.219 687.93 208.049C681.613 203.89 675.183 199.655 669.004 192.27C667.12 192.62 664.951 192.903 662.559 193.117C663.491 193.977 664.43 194.832 665.358 195.677C665.674 195.965 665.989 196.251 666.303 196.537C666.901 197.083 666.616 197.963 665.807 197.939C662.392 197.837 656.176 196.682 653.349 193.623C651.112 193.681 648.778 193.698 646.379 193.674C653.207 207.022 665.355 206.25 671.037 204.048C671.185 203.991 671.329 203.932 671.469 203.873L671.847 204.192C672.71 204.917 673.572 205.637 674.427 206.352C677.865 209.226 681.194 212.008 684.056 214.648Z" fill="#A2825C"/>
<path d="M726.381 210.919C725.335 208.537 723.54 206.196 721.34 203.873C718.796 201.186 715.709 198.523 712.608 195.848C704.301 188.682 695.889 181.425 697.51 173.377C692.522 193.69 699.615 197.749 707.619 202.329C712.839 205.316 718.446 208.524 721.34 216.608C728.673 237.085 731.44 263.109 727.765 275.694C728.142 275.357 728.446 275.002 728.673 274.627C733.685 266.333 732.226 230.637 727.765 214.901C727.331 213.371 726.869 212.029 726.381 210.919Z" fill="#EAC293"/>
<path d="M639.807 271.533C623.153 269.921 630.137 285.5 647.328 285.5C659.684 285.5 671.503 287.112 682.785 283.889C688.336 281.561 691.811 274.649 678.487 269.921C681.173 264.549 677.413 258.64 664.519 266.161C665.057 251.656 639.807 258.102 639.807 271.533Z" fill="url(#paint2_linear_0_1)"/>
<path d="M1795.5 268.615C1778.84 267.004 1785.83 282.583 1803.02 282.583C1815.38 282.583 1827.2 284.195 1838.48 280.971C1844.03 278.643 1847.5 271.731 1834.18 267.004C1836.87 261.631 1833.1 255.722 1820.21 263.243C1820.75 248.738 1795.5 255.185 1795.5 268.615Z" fill="url(#paint3_linear_0_1)"/>
<path d="M97.8344 275.223C102.784 277.948 106.578 281.245 98.6593 281.675C94.2095 281.917 91.2704 283.59 89.0809 284.836C87.3739 285.807 86.1226 286.519 84.9662 286.092C82.3266 285.117 88.9256 279.238 93.38 277.948C95.7279 277.267 96.0469 276.062 96.2406 275.33C96.4144 274.673 96.4874 274.397 97.8344 275.223Z" fill="#80C699"/>
<path fill-rule="evenodd" clip-rule="evenodd" d="M60.5496 281.102C62.5855 283.154 64.4406 284.796 66.1588 286.092C74.6068 292.462 79.7459 290.459 86.8097 287.705C89.9507 286.48 93.4722 285.107 97.8344 284.256C112.162 281.461 108.61 278.891 100.957 273.353C99.974 272.641 98.9234 271.881 97.8344 271.065C91.3321 266.194 90.0102 257.085 89.2095 251.567C88.8319 248.965 88.5702 247.161 87.9358 246.978C87.1641 246.754 85.3396 249.973 82.9117 254.256C79.111 260.96 73.8319 270.273 68.7984 273.073C66.9404 274.106 65.3309 274.921 63.9905 275.6C59.38 277.935 57.9534 278.658 60.5496 281.102ZM98.6593 281.675C106.578 281.245 102.784 277.948 97.8344 275.223C96.4874 274.397 96.4144 274.673 96.2406 275.33C96.0469 276.062 95.7279 277.267 93.38 277.948C88.9256 279.238 82.3266 285.117 84.9662 286.092C86.1226 286.519 87.3739 285.807 89.0809 284.836C91.2704 283.59 94.2095 281.917 98.6593 281.675Z" fill="url(#paint4_linear_0_1)"/>
<path d="M106.413 293.002C114.662 297.017 119.611 300.601 117.467 300.458C116.416 300.388 114.021 301.59 111.54 302.835C108.954 304.132 106.276 305.476 104.928 305.476C103.648 305.476 104.761 304.566 106.246 303.35C107.823 302.059 109.822 300.423 109.822 299.168C109.822 297.909 108.005 295.846 106.716 294.382C105.509 293.011 104.764 292.165 106.413 293.002Z" fill="#80C699"/>
<path fill-rule="evenodd" clip-rule="evenodd" d="M80.0169 325.686V343.042C81.7449 343.832 83.4965 344.191 85.1312 344.284C85.1262 343.961 85.1211 343.642 85.116 343.328L85.1159 343.319C84.9534 333.239 84.8676 327.911 92.2252 326.816V322.49C89.1147 323.054 86.2624 323.887 83.5136 324.691C83.4398 324.713 83.3654 324.734 83.2918 324.756C82.1874 325.079 81.0991 325.395 80.0169 325.686Z" fill="#A2825C"/>
<path d="M88.7607 344.076C88.3757 342.011 87.8368 337.02 88.7607 333.579C89.6845 330.138 91.4553 330.52 92.2252 331.141V326.816C84.8676 327.911 84.9534 333.239 85.1159 343.319L85.116 343.328C85.1211 343.642 85.1262 343.961 85.1312 344.284C86.4399 344.357 87.6738 344.26 88.7607 344.076Z" fill="#CCA374"/>
<path d="M88.7607 344.076C90.2563 343.823 91.4737 343.405 92.2252 343.042V331.141C91.4553 330.52 89.6845 330.138 88.7607 333.579C87.8368 337.02 88.3757 342.011 88.7607 344.076Z" fill="#EAC293"/>
<path fill-rule="evenodd" clip-rule="evenodd" d="M80.2832 307.978C86.2266 310.433 92.5735 313.054 99.8141 310.065C104.42 308.163 107.499 306.646 109.822 305.476C110.105 305.858 110.429 306.446 110.773 307.072C111.223 307.889 111.708 308.772 112.188 309.348C112.018 309.862 109.736 310.838 102.5 313.933C101.671 314.288 100.777 314.67 99.8141 315.083C93.2 317.916 84.7449 316.054 76.32 314.198C69.8246 312.767 63.3471 311.34 57.745 312.072C59.8728 310.641 61.8472 308.577 62.8592 306.393C63.9004 306.14 65 305.834 66.1588 305.476C70.7759 304.053 75.393 305.959 80.2832 307.978Z" fill="#17514B"/>
<path d="M43.062 319.814C43.3919 322.969 56.9201 325.836 68.7984 326.983C72.7318 327.363 76.3395 326.674 80.0169 325.686C81.0991 325.395 82.1874 325.079 83.2918 324.756L83.5136 324.691C86.2624 323.887 89.1147 323.054 92.2252 322.49C96.3735 321.739 100.981 321.469 106.413 322.395C123.241 325.263 126.54 322.395 123.241 319.814C120.573 317.727 115.767 313.644 112.188 309.348C112.018 309.862 109.736 310.838 102.5 313.933C101.671 314.288 100.777 314.67 99.8141 315.083C93.2 317.916 84.7449 316.054 76.32 314.198C69.8246 312.767 63.3471 311.34 57.745 312.072C51.5479 316.238 42.8163 317.466 43.062 319.814Z" fill="url(#paint5_linear_0_1)"/>
<path fill-rule="evenodd" clip-rule="evenodd" d="M119.941 302.322C123.241 301.175 110.403 292.429 100.683 286.092C96.7867 287.072 93.4438 288.537 90.314 289.908C82.082 293.515 75.3242 296.476 63.8491 288.265C60.6832 291.038 57.5587 293.003 54.9628 294.635C50.5938 297.383 47.7223 299.188 48.6712 302.322C49.6201 305.456 57.9099 307.598 62.8592 306.393C63.9004 306.14 65 305.834 66.1588 305.476C70.7759 304.053 75.393 305.959 80.2832 307.978C86.2266 310.433 92.5735 313.054 99.8141 310.065C104.42 308.163 107.499 306.646 109.822 305.476C110.045 305.364 110.262 305.255 110.472 305.148C112.79 303.978 114.44 303.644 116.164 303.296C117.316 303.062 118.502 302.822 119.941 302.322ZM106.413 293.002C114.662 297.017 119.611 300.601 117.467 300.458C116.416 300.388 114.021 301.59 111.54 302.835C108.954 304.132 106.276 305.476 104.928 305.476C103.648 305.476 104.761 304.566 106.246 303.35C107.823 302.059 109.822 300.423 109.822 299.168C109.822 297.909 108.005 295.846 106.716 294.382C105.509 293.011 104.764 292.165 106.413 293.002Z" fill="url(#paint6_linear_0_1)"/>
<path d="M66.1588 286.092C65.3911 286.869 64.6189 287.591 63.8491 288.265C75.3242 296.476 82.082 293.515 90.314 289.908C93.4438 288.537 96.7867 287.072 100.683 286.092C99.6783 285.437 98.7204 284.82 97.8344 284.256C93.4722 285.107 89.9507 286.48 86.8097 287.705C79.7459 290.459 74.6068 292.462 66.1588 286.092Z" fill="#17514B"/>
<path d="M2078.23 139.574C2086.2 143.968 2092.32 149.287 2079.56 149.981C2072.39 150.371 2067.66 153.068 2064.13 155.078C2061.38 156.645 2059.37 157.794 2057.5 157.104C2053.25 155.531 2063.88 146.05 2071.06 143.968C2074.84 142.871 2075.35 140.927 2075.66 139.746C2075.94 138.687 2076.06 138.242 2078.23 139.574Z" fill="#80C699"/>
<path fill-rule="evenodd" clip-rule="evenodd" d="M2018.18 149.056C2021.46 152.366 2024.44 155.015 2027.21 157.104C2040.82 167.379 2049.1 164.147 2060.47 159.706C2065.53 157.73 2071.2 155.516 2078.23 154.143C2101.31 149.635 2095.59 145.49 2083.26 136.557C2081.68 135.41 2079.99 134.184 2078.23 132.868C2067.76 125.011 2065.63 110.319 2064.34 101.419C2063.73 97.2227 2063.31 94.3141 2062.29 94.0177C2061.04 93.6571 2058.11 98.8483 2054.19 105.756C2048.07 116.57 2039.57 131.59 2031.46 136.106C2028.47 137.773 2025.88 139.087 2023.72 140.182C2016.29 143.949 2013.99 145.114 2018.18 149.056ZM2079.56 149.981C2092.32 149.287 2086.2 143.968 2078.23 139.574C2076.06 138.242 2075.94 138.687 2075.66 139.746C2075.35 140.927 2074.84 142.871 2071.06 143.968C2063.88 146.05 2053.25 155.531 2057.5 157.104C2059.37 157.794 2061.38 156.645 2064.13 155.078C2067.66 153.068 2072.39 150.371 2079.56 149.981Z" fill="url(#paint7_linear_0_1)"/>
<path d="M2092.05 168.25C2105.34 174.725 2113.31 180.506 2109.85 180.275C2108.16 180.162 2104.3 182.1 2100.31 184.108C2096.14 186.201 2091.83 188.369 2089.66 188.369C2087.6 188.369 2089.39 186.9 2091.78 184.94C2094.32 182.857 2097.54 180.219 2097.54 178.194C2097.54 176.164 2094.61 172.837 2092.54 170.476C2090.59 168.263 2089.39 166.9 2092.05 168.25Z" fill="#80C699"/>
<path fill-rule="evenodd" clip-rule="evenodd" d="M2049.53 220.964V248.957C2052.32 250.232 2055.14 250.811 2057.77 250.96C2057.76 250.439 2057.75 249.925 2057.75 249.419L2057.75 249.404C2057.48 233.147 2057.35 224.553 2069.2 222.787V215.81C2064.19 216.719 2059.59 218.064 2055.16 219.36C2055.05 219.395 2054.93 219.43 2054.81 219.464C2053.03 219.985 2051.28 220.496 2049.53 220.964Z" fill="#A2825C"/>
<path d="M2063.62 250.625C2063 247.294 2062.13 239.244 2063.62 233.694C2065.1 228.144 2067.96 228.761 2069.2 229.763V222.787C2057.35 224.553 2057.48 233.147 2057.75 249.404L2057.75 249.419C2057.75 249.925 2057.76 250.439 2057.77 250.96C2059.88 251.079 2061.87 250.922 2063.62 250.625Z" fill="#CCA374"/>
<path d="M2063.62 250.625C2066.03 250.216 2067.99 249.542 2069.2 248.957V229.763C2067.96 228.761 2065.1 228.144 2063.62 233.694C2062.13 239.244 2063 247.294 2063.62 250.625Z" fill="#EAC293"/>
<path fill-rule="evenodd" clip-rule="evenodd" d="M2049.96 192.404C2059.53 196.363 2069.76 200.59 2081.42 195.769C2088.84 192.702 2093.8 190.255 2097.54 188.369C2098 188.984 2098.52 189.932 2099.07 190.943C2099.8 192.261 2100.58 193.684 2101.35 194.613C2101.08 195.443 2097.4 197.017 2085.75 202.008C2084.41 202.58 2082.97 203.197 2081.42 203.863C2070.77 208.433 2057.15 205.429 2043.58 202.435C2033.12 200.127 2022.68 197.826 2013.66 199.006C2017.09 196.699 2020.27 193.37 2021.9 189.847C2023.57 189.438 2025.34 188.945 2027.21 188.369C2034.65 186.072 2042.08 189.147 2049.96 192.404Z" fill="#17514B"/>
<path d="M1990.01 211.494C1990.54 216.582 2012.33 221.207 2031.46 223.057C2037.8 223.669 2043.61 222.558 2049.53 220.964C2051.28 220.496 2053.03 219.985 2054.81 219.464L2055.16 219.36C2059.59 218.064 2064.19 216.719 2069.2 215.81C2075.88 214.598 2083.3 214.163 2092.05 215.657C2119.15 220.282 2124.47 215.657 2119.15 211.494C2114.86 208.128 2107.12 201.542 2101.35 194.613C2101.08 195.443 2097.4 197.017 2085.75 202.008C2084.41 202.58 2082.97 203.197 2081.42 203.863C2070.77 208.433 2057.15 205.429 2043.58 202.435C2033.12 200.127 2022.68 197.826 2013.66 199.006C2003.68 205.726 1989.61 207.707 1990.01 211.494Z" fill="url(#paint8_linear_0_1)"/>
<path fill-rule="evenodd" clip-rule="evenodd" d="M2113.84 183.281C2119.15 181.431 2098.48 167.325 2082.82 157.104C2076.54 158.684 2071.16 161.047 2066.12 163.259C2052.86 169.077 2041.97 173.852 2023.49 160.609C2018.39 165.082 2013.36 168.251 2009.18 170.884C2002.14 175.315 1997.51 178.227 1999.04 183.281C2000.57 188.336 2013.92 191.791 2021.9 189.847C2023.57 189.438 2025.34 188.945 2027.21 188.369C2034.65 186.072 2042.08 189.147 2049.96 192.404C2059.53 196.363 2069.76 200.59 2081.42 195.769C2088.84 192.702 2093.8 190.255 2097.54 188.369C2097.9 188.187 2098.25 188.011 2098.59 187.84C2102.32 185.953 2104.98 185.414 2107.76 184.851C2109.61 184.475 2111.52 184.088 2113.84 183.281ZM2092.05 168.25C2105.34 174.725 2113.31 180.506 2109.85 180.275C2108.16 180.162 2104.3 182.1 2100.31 184.108C2096.14 186.201 2091.83 188.369 2089.66 188.369C2087.6 188.369 2089.39 186.9 2091.78 184.94C2094.32 182.857 2097.54 180.219 2097.54 178.194C2097.54 176.164 2094.61 172.837 2092.54 170.476C2090.59 168.263 2089.39 166.9 2092.05 168.25Z" fill="url(#paint9_linear_0_1)"/>
<path d="M2027.21 157.104C2025.97 158.357 2024.73 159.522 2023.49 160.609C2041.97 173.852 2052.86 169.077 2066.12 163.259C2071.16 161.047 2076.54 158.684 2082.82 157.104C2081.2 156.048 2079.66 155.053 2078.23 154.143C2071.2 155.516 2065.53 157.73 2060.47 159.706C2049.1 164.147 2040.82 167.379 2027.21 157.104Z" fill="#17514B"/>
<path d="M382.405 153.117C372.342 118.31 307.253 103.298 252.254 123.302C283.33 146.315 352.866 184.496 382.405 153.117Z" fill="#26936B"/>
<path d="M383.191 169.02C376.906 212.483 248.799 149.937 241.623 127.675C245.112 126.065 248.662 124.609 252.254 123.302C283.33 146.315 352.866 184.496 382.405 153.117C383.828 158.037 384.151 163.352 383.191 169.02Z" fill="#125E47"/>
<path d="M284.48 294.11C245.292 289.87 244.573 256.954 249.112 238.579C254.264 238.451 259.629 238.506 265.191 238.822C265.418 238.834 265.645 238.848 265.872 238.862C255.397 299.287 304.629 284.422 284.48 240.958C288.925 241.698 293.468 242.63 298.103 243.787C298.183 243.807 298.264 243.828 298.344 243.848C300.09 247.735 298.344 273.968 313.009 268.668C317.976 266.873 318.246 280.626 318.246 299.412C357.003 304.028 346.529 273.968 342.339 261.259C347.386 264.019 352.504 267.091 357.685 270.504C357.828 270.599 357.972 270.693 358.115 270.788C362.241 297.291 357.003 321.674 318.424 314.253C322.478 480.823 394.742 484.456 395.761 578.218C390.15 578.584 383.775 578.941 376.906 579.255C379.228 559.827 377.452 513.339 351.766 482.808C319.659 444.644 307.772 347.115 305.677 334.394C303.582 321.673 304.768 331.213 278.581 318.493C280.003 309.517 281.989 301.224 284.48 294.11Z" fill="#C1956D"/>
<path fill-rule="evenodd" clip-rule="evenodd" d="M278.581 318.493C304.768 331.213 303.582 321.673 305.677 334.394C307.772 347.115 319.659 444.644 351.766 482.808C377.452 513.339 379.228 559.827 376.906 579.255C372.218 579.469 367.301 579.664 362.241 579.828C360.773 555.494 357.119 537.074 353.217 527.332C345.981 509.267 337.889 521.044 341.291 580.298C313.903 580.626 285.8 579.756 269.014 576.224C289.964 510.625 277.948 495.529 300.439 423.442C297.995 424.502 290.914 425.35 282.146 420.262C282.108 415.682 281.9 411.084 281.497 406.481H297.297V382.098C283.051 373.618 278.461 378.565 277.948 382.098C275.051 361.113 275.463 338.165 278.581 318.493ZM293.107 537.933C291.361 532.279 292.269 513.339 309.866 482.808V537.933H293.107Z" fill="#9D7958"/>
<path d="M254.349 569.737C244.214 554.817 282.718 489.667 282.146 420.262C290.914 425.35 297.995 424.502 300.439 423.442C277.948 495.529 289.964 510.625 269.014 576.224C261.491 574.641 256.241 572.522 254.349 569.737Z" fill="#816851"/>
<path d="M309.866 482.808C292.269 513.339 291.361 532.279 293.107 537.933H309.866V482.808Z" fill="#806851"/>
<path d="M341.291 580.298C337.889 521.044 345.981 509.267 353.217 527.332C351.766 545.353 351.766 577.181 351.766 578.218C351.766 579.047 344.783 579.95 341.291 580.298Z" fill="#7A5E43"/>
<path fill-rule="evenodd" clip-rule="evenodd" d="M211.333 242.213C222.04 240.715 234.749 238.937 249.112 238.579C254.264 238.451 259.629 238.506 265.191 238.822C265.418 238.834 265.645 238.848 265.872 238.862C271.856 239.224 278.065 239.89 284.48 240.958C288.925 241.698 293.468 242.63 298.103 243.787L298.344 243.848C312.242 247.339 326.966 252.854 342.339 261.259C347.386 264.019 352.504 267.091 357.685 270.504L358.115 270.788C364.292 274.878 370.559 279.455 376.906 284.57C457.142 349.244 485.522 264.284 447.136 208.687C449.65 263.812 289.615 191.903 210.355 148.22C191.107 165.763 177.124 190.659 173.692 224.145C171.266 247.82 185.452 245.835 211.333 242.213Z" fill="#125E47"/>
<path d="M383.191 169.02C412.815 173.905 433.928 189.558 447.136 208.687C449.65 263.812 289.615 191.903 210.355 148.22C219.732 139.674 230.358 132.873 241.623 127.675C248.799 149.937 376.906 212.483 383.191 169.02Z" fill="#26936B"/>
<path d="M279.489 391.64C278.898 388.452 278.385 385.269 277.948 382.098C278.461 378.565 283.051 373.618 297.297 382.098V406.481H281.497C281.063 401.535 280.405 396.582 279.489 391.64Z" fill="#816851"/>
<path d="M1232.89 50.1329C1238.91 29.3692 1277.88 20.414 1310.81 32.347C1292.2 46.0751 1250.57 68.8516 1232.89 50.1329Z" fill="#26936B"/>
<path d="M1232.42 59.6193C1236.18 85.5466 1312.87 48.2358 1317.17 34.9556C1315.08 33.9952 1312.96 33.1265 1310.81 32.347C1292.2 46.0751 1250.57 68.8516 1232.89 50.1329C1232.03 53.0677 1231.84 56.2384 1232.42 59.6193Z" fill="#125E47"/>
<path d="M1291.51 134.24C1314.97 131.711 1315.4 112.075 1312.69 101.114C1309.6 101.038 1306.39 101.07 1303.06 101.259C1302.92 101.266 1302.79 101.274 1302.65 101.282C1308.92 137.329 1279.45 128.461 1291.51 102.533C1288.85 102.974 1286.13 103.531 1283.36 104.221C1283.31 104.233 1283.26 104.245 1283.21 104.257C1282.17 106.576 1283.21 122.225 1274.43 119.063C1271.46 117.992 1271.3 126.197 1271.3 137.403C1248.09 140.157 1254.36 122.225 1256.87 114.643C1253.85 116.29 1250.79 118.122 1247.69 120.159C1247.6 120.215 1247.51 120.271 1247.43 120.328C1244.96 136.138 1248.09 150.683 1271.19 146.256C1268.76 245.621 1225.5 247.788 1224.89 303.721C1228.25 303.939 1232.07 304.152 1236.18 304.339C1234.79 292.75 1235.85 265.018 1251.23 246.805C1270.45 224.039 1277.57 165.86 1278.82 158.271C1280.08 150.682 1279.37 156.373 1295.04 148.785C1294.19 143.431 1293 138.484 1291.51 134.24Z" fill="#C1956D"/>
<path fill-rule="evenodd" clip-rule="evenodd" d="M1295.04 148.785C1279.37 156.373 1280.08 150.682 1278.82 158.271C1277.57 165.86 1270.45 224.039 1251.23 246.805C1235.85 265.018 1234.79 292.75 1236.18 304.339C1238.98 304.467 1241.93 304.583 1244.96 304.681C1245.84 290.165 1248.02 279.177 1250.36 273.365C1254.69 262.589 1259.54 269.615 1257.5 304.962C1273.9 305.157 1290.72 304.639 1300.77 302.531C1288.23 263.399 1295.42 254.394 1281.96 211.392C1283.42 212.024 1287.66 212.53 1292.91 209.494C1292.93 206.762 1293.06 204.02 1293.3 201.273H1283.84V186.728C1292.37 181.669 1295.12 184.621 1295.42 186.728C1297.16 174.21 1296.91 160.521 1295.04 148.785ZM1286.35 279.689C1287.39 276.317 1286.85 265.018 1276.31 246.805V279.689H1286.35Z" fill="#9D7958"/>
<path d="M1309.55 298.662C1315.62 289.762 1292.57 250.897 1292.91 209.494C1287.66 212.53 1283.42 212.024 1281.96 211.392C1295.42 254.394 1288.23 263.399 1300.77 302.531C1305.28 301.587 1308.42 300.323 1309.55 298.662Z" fill="#816851"/>
<path d="M1276.31 246.805C1286.85 265.018 1287.39 276.317 1286.35 279.689H1276.31V246.805Z" fill="#806851"/>
<path d="M1257.5 304.962C1259.54 269.615 1254.69 262.589 1250.36 273.365C1251.23 284.116 1251.23 303.102 1251.23 303.721C1251.23 304.216 1255.41 304.754 1257.5 304.962Z" fill="#7A5E43"/>
<path fill-rule="evenodd" clip-rule="evenodd" d="M1335.3 103.282C1328.89 102.388 1321.29 101.327 1312.69 101.114C1309.6 101.038 1306.39 101.07 1303.06 101.259C1302.92 101.266 1302.79 101.274 1302.65 101.282C1299.07 101.498 1295.35 101.896 1291.51 102.533C1288.85 102.974 1286.13 103.531 1283.36 104.221L1283.21 104.257C1274.89 106.339 1266.08 109.629 1256.87 114.643C1253.85 116.29 1250.79 118.122 1247.69 120.159L1247.43 120.328C1243.73 122.767 1239.98 125.498 1236.18 128.549C1188.14 167.13 1171.15 116.448 1194.13 83.2824C1192.63 116.167 1288.44 73.2701 1335.89 47.2117C1347.41 57.6764 1355.79 72.528 1357.84 92.5034C1359.29 106.627 1350.8 105.442 1335.3 103.282Z" fill="#125E47"/>
<path d="M1232.42 59.6193C1214.68 62.5333 1202.04 71.8709 1194.13 83.2824C1192.63 116.167 1288.44 73.2701 1335.89 47.2117C1330.28 42.1136 1323.91 38.0567 1317.17 34.9556C1312.87 48.2358 1236.18 85.5466 1232.42 59.6193Z" fill="#26936B"/>
<path d="M1294.5 192.421C1294.85 190.518 1295.16 188.62 1295.42 186.728C1295.12 184.621 1292.37 181.669 1283.84 186.728V201.273H1293.3C1293.56 198.323 1293.95 195.369 1294.5 192.421Z" fill="#816851"/>
<path fill-rule="evenodd" clip-rule="evenodd" d="M227.315 580.362C226.831 580.362 226.413 579.999 226.327 579.523C221.477 552.781 218.777 551.592 191.842 555.311C171.042 558.183 161.006 550.995 157.634 545.978C158.766 544.769 160.131 543.312 161.684 541.683L161.793 541.569L161.827 541.533C169.617 549.42 175.7 550.537 179.31 550.414C179.997 550.391 180.39 549.658 180.06 549.055C176.284 542.163 170.56 537.436 167.62 535.584C172.451 530.736 177.92 525.332 183.468 520.574C188.611 526.666 189.666 531.827 190.588 536.343C191.15 539.09 191.662 541.598 193.016 543.932C193.057 544.003 193.103 544.064 193.163 544.12C197.096 547.795 217.783 547.722 212.871 537.775C210.35 532.67 206.31 529.84 201.971 526.802C197.851 523.917 193.463 520.844 189.85 515.455C190.863 514.706 191.871 513.994 192.871 513.327C196.491 517.722 202.067 521.68 205.824 524.346C206.46 524.798 207.043 525.212 207.557 525.585C208.228 526.073 209.237 525.625 209.284 524.795L210.26 507.623C211.425 507.704 212.677 507.846 214.008 508.04L214.117 508.056C209.365 536.924 224.006 530.692 237.226 513.513C238.557 513.882 239.907 514.26 241.276 514.644C237.132 521.804 232.99 524.541 229.53 526.829C225.772 529.313 222.816 531.267 221.53 537.775C219.056 550.301 228.953 560.321 236.375 557.816C243.797 555.311 252.456 546.543 251.219 540.28C251.044 539.394 250.844 538.499 250.641 537.588C249.411 532.083 248.045 525.967 251.177 517.425C253.197 517.987 255.239 518.551 257.295 519.108C253.648 527.838 255.058 536.868 258.641 537.775C259.023 537.872 259.39 537.976 259.746 538.077C263.939 539.266 266.726 540.056 275.477 523.655C277.041 524.003 278.601 524.336 280.154 524.651C278.468 530.205 271.348 542.306 253.262 555.825C252.369 556.493 253.044 557.946 254.118 557.649C278.674 550.854 285.412 544.272 300.82 527.579C302.892 527.708 304.917 527.77 306.886 527.755C289.177 550.821 273.552 559.201 261.058 564.456C251.876 568.318 246.238 570.689 247.284 576.449C247.364 576.887 247.304 577.345 247.241 577.825C247.227 577.934 247.213 578.044 247.2 578.156C246.855 579.378 245.915 580.362 244.622 580.362H227.315ZM173.638 529.712C173.3 530.032 173.23 530.547 173.473 530.944C178.533 539.195 184.029 542.987 186.973 543.845C187.566 544.017 188.04 543.485 187.943 542.875C187.911 542.674 187.879 542.476 187.848 542.28C186.877 536.147 186.326 532.666 180.126 525.16C179.77 524.728 179.126 524.681 178.708 525.053C176.979 526.591 175.282 528.155 173.638 529.712Z" fill="#B89574"/>
<path fill-rule="evenodd" clip-rule="evenodd" d="M247.284 576.449C247.388 577.021 247.353 577.612 247.2 578.156C247.213 578.044 247.227 577.934 247.241 577.825C247.304 577.345 247.364 576.887 247.284 576.449Z" fill="#D9D9D9"/>
<path d="M274.723 463.874C280.846 477.652 196.79 471.39 183.182 461.369C176.997 456.814 168.113 447.326 167.75 438.097C165.876 452.41 159.548 461.727 153.533 470.585C145.557 482.331 138.129 493.269 142.36 513.977C143.197 518.074 143.94 521.757 144.606 525.06L144.607 525.063C149.845 551.037 150.341 553.493 154.731 549.048C155.305 548.467 156.212 547.498 157.394 546.235L157.394 546.234L157.397 546.232L157.634 545.978C158.766 544.769 160.131 543.312 161.684 541.683L161.793 541.569L161.827 541.533C163.553 539.724 165.504 537.707 167.62 535.584C172.451 530.736 177.92 525.332 183.468 520.574C185.594 518.75 187.732 517.021 189.85 515.455C190.863 514.706 191.871 513.994 192.871 513.327C197.323 510.356 201.616 508.268 205.449 507.714C206.816 507.516 208.43 507.495 210.26 507.623C211.425 507.704 212.677 507.846 214.008 508.04L214.117 508.056C220.36 508.977 228.334 511.046 237.226 513.513C238.557 513.882 239.907 514.26 241.276 514.644C242.338 514.943 243.412 515.245 244.495 515.55L244.496 515.55C246.688 516.167 248.918 516.795 251.177 517.425C253.197 517.987 255.239 518.551 257.295 519.108C263.291 520.733 269.413 522.306 275.477 523.655C277.041 524.003 278.601 524.336 280.154 524.651C287.298 526.101 294.291 527.174 300.82 527.579C302.892 527.708 304.917 527.77 306.886 527.755C307.614 527.749 308.695 527.772 309.893 527.797C312.387 527.849 315.39 527.911 316.782 527.755C339.049 522.745 357.604 506.461 347.708 502.704C343.428 501.079 335.909 500.859 327.953 500.627C317.512 500.322 306.317 499.995 300.701 496.441C296.281 493.644 291.981 486.831 287.711 480.067C283.381 473.207 279.083 466.397 274.723 463.874Z" fill="#297D5F"/>
<path d="M243.797 441.328C258.641 460.117 173.286 442.581 191.842 426.298C173.257 425.191 167.463 430.791 167.75 438.097C168.113 447.326 176.997 456.814 183.182 461.369C196.79 471.39 280.846 477.652 274.723 463.874C268.599 450.096 249.57 438.339 242.56 438.097C242.955 438.627 243.056 439.157 243.157 439.687C243.262 440.235 243.366 440.783 243.797 441.328Z" fill="#288A67"/>
<path d="M191.842 426.298C173.286 442.581 258.641 460.117 243.797 441.328C243.366 440.783 243.262 440.235 243.157 439.687C243.056 439.157 242.955 438.627 242.56 438.097C241.398 436.538 240.274 434.981 239.172 433.453C227.662 417.502 218.454 404.741 191.842 426.298Z" fill="#4FA17C"/>
<path fill-rule="evenodd" clip-rule="evenodd" d="M2136.07 280C2135.58 280 2135.17 279.641 2135.08 279.165C2132.03 262.49 2130.24 261.759 2113.22 264.105C2100.01 265.927 2093.63 261.366 2091.49 258.183C2092.21 257.416 2093.07 256.491 2094.06 255.457L2094.13 255.385L2094.15 255.362C2098.75 260.011 2102.41 260.953 2104.75 261.001C2105.43 261.015 2105.83 260.283 2105.48 259.688C2103.09 255.558 2099.64 252.722 2097.83 251.588C2100.9 248.512 2104.38 245.083 2107.9 242.063C2111.17 245.929 2111.84 249.203 2112.43 252.069C2112.78 253.797 2113.1 255.376 2113.95 256.846C2113.99 256.916 2114.03 256.979 2114.09 257.033C2116.67 259.335 2129.69 259.263 2126.59 252.978C2124.98 249.739 2122.42 247.943 2119.66 246.015C2117.04 244.185 2114.25 242.235 2111.96 238.815C2112.6 238.34 2113.24 237.888 2113.88 237.465C2116.18 240.254 2119.72 242.765 2122.11 244.457C2122.28 244.579 2122.45 244.697 2122.61 244.811C2123.28 245.292 2124.3 244.83 2124.35 244.001L2124.93 233.846C2125.67 233.898 2126.46 233.987 2127.31 234.11L2127.38 234.121C2124.36 252.438 2133.66 248.483 2142.06 237.583C2142.91 237.817 2143.77 238.057 2144.64 238.301C2142 242.844 2139.37 244.581 2137.17 246.032C2134.78 247.608 2132.91 248.848 2132.09 252.978C2130.52 260.926 2136.8 267.284 2141.52 265.694C2146.24 264.105 2151.74 258.541 2150.95 254.568C2150.84 254.005 2150.72 253.437 2150.59 252.859C2149.8 249.366 2148.94 245.486 2150.93 240.065C2152.21 240.422 2153.51 240.78 2154.81 241.133C2152.5 246.673 2153.39 252.402 2155.67 252.978C2155.91 253.039 2156.15 253.105 2156.37 253.169C2159.04 253.924 2160.81 254.425 2166.37 244.018C2167.36 244.239 2168.35 244.451 2169.34 244.651C2168.32 248.005 2164.17 255.123 2153.86 263.198C2152.99 263.885 2153.68 265.345 2154.75 265.03C2168.78 260.905 2173.1 256.643 2182.47 246.508C2183.79 246.59 2185.08 246.629 2186.33 246.62C2175.07 261.256 2165.14 266.573 2157.21 269.907C2151.37 272.358 2147.79 273.862 2148.45 277.517C2148.5 277.795 2148.47 278.086 2148.43 278.39C2148.42 278.459 2148.41 278.529 2148.4 278.6C2148.18 279.376 2147.58 280 2146.76 280H2136.07ZM2101.87 247.661C2101.53 247.981 2101.46 248.496 2101.7 248.891C2104.68 253.64 2107.87 255.992 2109.77 256.708C2110.32 256.917 2110.78 256.421 2110.69 255.836V255.836C2110.08 252.024 2109.73 249.827 2106.02 245.262C2105.66 244.828 2105.02 244.779 2104.6 245.152C2103.67 245.982 2102.76 246.823 2101.87 247.661Z" fill="#B89574"/>
<path fill-rule="evenodd" clip-rule="evenodd" d="M2148.45 277.517C2148.52 277.88 2148.5 278.255 2148.4 278.6C2148.41 278.529 2148.42 278.459 2148.43 278.39C2148.47 278.086 2148.5 277.795 2148.45 277.517Z" fill="#D9D9D9"/>
<path d="M2165.89 206.087C2169.78 214.829 2116.37 210.855 2107.72 204.497C2103.79 201.607 2098.14 195.587 2097.91 189.731C2096.72 198.812 2092.7 204.724 2088.88 210.345C2083.81 217.798 2079.09 224.738 2081.78 237.877C2082.31 240.477 2082.78 242.814 2083.21 244.91L2083.21 244.912C2086.54 261.393 2086.85 262.951 2089.64 260.131C2090.01 259.762 2090.58 259.147 2091.33 258.346L2091.33 258.345L2091.34 258.344L2091.49 258.183C2092.21 257.416 2093.07 256.491 2094.06 255.457L2094.13 255.385L2094.15 255.362C2095.25 254.214 2096.49 252.935 2097.83 251.588C2100.9 248.512 2104.38 245.083 2107.9 242.063C2109.25 240.906 2110.61 239.809 2111.96 238.815C2112.6 238.34 2113.24 237.888 2113.88 237.465C2116.71 235.58 2119.43 234.255 2121.87 233.904C2122.74 233.778 2123.76 233.765 2124.93 233.846C2125.67 233.898 2126.46 233.987 2127.31 234.11L2127.38 234.121C2131.34 234.705 2136.41 236.018 2142.06 237.583C2142.91 237.817 2143.77 238.057 2144.64 238.301C2145.31 238.49 2145.99 238.682 2146.68 238.876L2146.68 238.876C2148.07 239.267 2149.49 239.666 2150.93 240.065C2152.21 240.422 2153.51 240.78 2154.81 241.133C2158.62 242.164 2162.51 243.162 2166.37 244.018C2167.36 244.239 2168.35 244.451 2169.34 244.651C2173.88 245.571 2178.32 246.251 2182.47 246.508C2183.79 246.59 2185.08 246.629 2186.33 246.62C2186.79 246.616 2187.48 246.631 2188.24 246.647C2189.82 246.68 2191.73 246.719 2192.61 246.62C2206.76 243.441 2218.55 233.109 2212.27 230.725C2209.55 229.693 2204.77 229.554 2199.71 229.407C2193.08 229.213 2185.96 229.006 2182.4 226.751C2179.59 224.976 2176.85 220.653 2174.14 216.361C2171.39 212.009 2168.66 207.687 2165.89 206.087Z" fill="#297D5F"/>
<path d="M2146.24 191.781C2155.67 203.703 2101.43 192.576 2113.22 182.244C2101.41 181.542 2097.73 185.095 2097.91 189.731C2098.14 195.587 2103.79 201.607 2107.72 204.497C2116.37 210.855 2169.78 214.829 2165.89 206.087C2162 197.344 2149.91 189.884 2145.45 189.731C2145.7 190.067 2145.77 190.404 2145.83 190.74C2145.9 191.088 2145.96 191.435 2146.24 191.781Z" fill="#288A67"/>
<path d="M2113.22 182.244C2101.43 192.576 2155.67 203.703 2146.24 191.781C2145.96 191.435 2145.9 191.088 2145.83 190.74C2145.77 190.404 2145.7 190.067 2145.45 189.731C2144.71 188.742 2144 187.754 2143.3 186.784C2135.98 176.663 2130.13 168.566 2113.22 182.244Z" fill="#4FA17C"/>
<path fill-rule="evenodd" clip-rule="evenodd" d="M1356.73 301.481C1356.25 301.481 1355.83 301.118 1355.74 300.641C1350.89 273.9 1348.19 272.711 1321.26 276.43C1300.46 279.302 1290.42 272.113 1287.05 267.097C1288.18 265.888 1289.55 264.431 1291.1 262.801L1291.21 262.687L1291.24 262.652C1299.03 270.539 1305.12 271.656 1308.73 271.533C1309.41 271.509 1309.81 270.777 1309.48 270.174C1305.7 263.282 1299.98 258.555 1297.04 256.703C1301.87 251.855 1307.34 246.451 1312.89 241.693C1318.03 247.785 1319.08 252.945 1320.01 257.461C1320.57 260.208 1321.08 262.717 1322.43 265.051C1322.47 265.121 1322.52 265.183 1322.58 265.239C1326.51 268.914 1347.2 268.841 1342.29 258.894C1339.77 253.789 1335.73 250.959 1331.39 247.921C1327.27 245.036 1322.88 241.963 1319.27 236.573C1320.28 235.824 1321.29 235.113 1322.29 234.445C1325.91 238.84 1331.48 242.798 1335.24 245.465C1335.88 245.916 1336.46 246.33 1336.97 246.704C1337.65 247.192 1338.65 246.743 1338.7 245.914L1339.68 228.742C1340.84 228.823 1342.09 228.964 1343.43 229.159L1343.53 229.174C1338.78 258.042 1353.42 251.81 1366.64 234.632C1367.97 235.001 1369.32 235.379 1370.69 235.763C1366.55 242.922 1362.41 245.66 1358.95 247.948C1355.19 250.432 1352.23 252.385 1350.95 258.894C1348.47 271.42 1358.37 281.44 1365.79 278.935C1373.21 276.43 1381.87 267.662 1380.64 261.399C1380.46 260.513 1380.26 259.618 1380.06 258.706C1378.83 253.201 1377.46 247.086 1380.59 238.543C1382.61 239.106 1384.66 239.669 1386.71 240.227C1383.07 248.957 1384.47 257.987 1388.06 258.894C1388.44 258.991 1388.81 259.095 1389.16 259.196C1393.36 260.385 1396.14 261.175 1404.89 244.774C1406.46 245.122 1408.02 245.455 1409.57 245.77C1407.89 251.324 1400.77 263.425 1382.68 276.944C1381.79 277.611 1382.46 279.065 1383.54 278.768C1408.09 271.973 1414.83 265.391 1430.24 248.698C1432.31 248.827 1434.33 248.888 1436.3 248.874C1418.59 271.94 1402.97 280.32 1390.48 285.575C1381.29 289.437 1375.66 291.808 1376.7 297.568C1376.78 298.006 1376.72 298.464 1376.66 298.944C1376.64 299.053 1376.63 299.163 1376.62 299.274C1376.27 300.497 1375.33 301.481 1374.04 301.481H1356.73ZM1303.06 250.83C1302.72 251.151 1302.65 251.666 1302.89 252.063C1307.95 260.314 1313.45 264.105 1316.39 264.964C1316.98 265.136 1317.46 264.603 1317.36 263.994C1317.33 263.793 1317.3 263.594 1317.27 263.399C1316.29 257.265 1315.74 253.785 1309.54 246.279C1309.19 245.847 1308.54 245.799 1308.12 246.172C1306.4 247.71 1304.7 249.274 1303.06 250.83Z" fill="#B89574"/>
<path fill-rule="evenodd" clip-rule="evenodd" d="M1376.7 297.568C1376.81 298.14 1376.77 298.731 1376.62 299.274C1376.63 299.163 1376.64 299.053 1376.66 298.944C1376.72 298.464 1376.78 298.006 1376.7 297.568Z" fill="#D9D9D9"/>
<path d="M1404.14 184.993C1410.26 198.771 1326.21 192.508 1312.6 182.488C1306.41 177.933 1297.53 168.445 1297.17 159.216C1295.29 173.529 1288.97 182.846 1282.95 191.703C1274.97 203.449 1267.55 214.387 1271.78 235.095C1272.61 239.193 1273.36 242.876 1274.02 246.179L1274.02 246.182C1279.26 272.156 1279.76 274.612 1284.15 270.167C1284.72 269.586 1285.63 268.617 1286.81 267.354L1286.81 267.353L1286.81 267.351L1287.05 267.097C1288.18 265.888 1289.55 264.431 1291.1 262.801L1291.21 262.687L1291.24 262.652C1292.97 260.843 1294.92 258.826 1297.04 256.703C1301.87 251.855 1307.34 246.451 1312.89 241.693C1315.01 239.869 1317.15 238.14 1319.27 236.573C1320.28 235.824 1321.29 235.113 1322.29 234.445C1326.74 231.475 1331.03 229.387 1334.87 228.833C1336.23 228.635 1337.85 228.614 1339.68 228.742C1340.84 228.823 1342.09 228.964 1343.43 229.159L1343.53 229.174C1349.78 230.095 1357.75 232.165 1366.64 234.632C1367.97 235.001 1369.32 235.379 1370.69 235.763C1371.76 236.061 1372.83 236.364 1373.91 236.669L1373.91 236.669C1376.1 237.286 1378.34 237.914 1380.59 238.543C1382.61 239.106 1384.66 239.669 1386.71 240.227C1392.71 241.851 1398.83 243.425 1404.89 244.774C1406.46 245.122 1408.02 245.455 1409.57 245.77C1416.72 247.22 1423.71 248.292 1430.24 248.698C1432.31 248.827 1434.33 248.888 1436.3 248.874C1437.03 248.868 1438.11 248.891 1439.31 248.916C1441.8 248.968 1444.81 249.03 1446.2 248.874C1468.47 243.863 1487.02 227.58 1477.13 223.822C1472.85 222.197 1465.33 221.978 1457.37 221.746C1446.93 221.441 1435.73 221.114 1430.12 217.56C1425.7 214.763 1421.4 207.95 1417.13 201.185C1412.8 194.326 1408.5 187.516 1404.14 184.993Z" fill="#297D5F"/>
<path d="M1373.21 162.447C1388.06 181.236 1302.7 163.7 1321.26 147.417C1302.67 146.31 1296.88 151.909 1297.17 159.216C1297.53 168.445 1306.41 177.933 1312.6 182.488C1326.21 192.508 1410.26 198.771 1404.14 184.993C1398.02 171.215 1378.99 159.458 1371.98 159.216C1372.37 159.746 1372.47 160.276 1372.57 160.806C1372.68 161.354 1372.78 161.902 1373.21 162.447Z" fill="#288A67"/>
<path d="M1321.26 147.417C1302.7 163.7 1388.06 181.236 1373.21 162.447C1372.78 161.902 1372.68 161.354 1372.57 160.806C1372.47 160.276 1372.37 159.746 1371.98 159.216C1370.82 157.657 1369.69 156.1 1368.59 154.572C1357.08 138.621 1347.87 125.859 1321.26 147.417Z" fill="#4FA17C"/>
<path d="M1579.6 404.353C1571.62 398.789 1564.44 392.601 1558.34 383.841C1555.17 379.284 1552.81 374.876 1551.05 370.803C1548.89 373.291 1542.83 377.434 1535.2 375.247C1534.54 375.057 1533.85 375.527 1533.85 376.215C1533.86 400.669 1550.78 418.747 1593.12 454.541C1595.62 454.829 1598.22 455.077 1600.85 455.285C1596.99 454.556 1552.97 406.439 1559.63 405.794C1563.08 405.46 1567.27 409.794 1575.96 418.778C1584.06 427.154 1596.06 439.572 1615.02 456.014C1621.15 456.162 1626.88 456.076 1631.39 455.742C1615.91 438.192 1600.46 426.906 1591.98 420.708C1589.12 418.615 1587.05 417.102 1586.04 416.124C1582.84 413.025 1604.03 422.711 1615.02 427.941C1607.27 421.95 1599.77 417.264 1592.69 412.838C1588.14 409.995 1583.76 407.26 1579.6 404.353Z" fill="#9E8465"/>
<path d="M1600.85 455.285C1605.57 455.658 1610.41 455.902 1615.02 456.014C1596.06 439.572 1584.06 427.154 1575.96 418.778C1567.27 409.794 1563.08 405.46 1559.63 405.794C1552.97 406.439 1596.99 454.556 1600.85 455.285Z" fill="#C6B19A"/>
<path d="M1625.97 437.242C1622.28 433.79 1618.62 430.725 1615.02 427.941C1604.03 422.711 1582.84 413.025 1586.04 416.124C1587.05 417.102 1589.12 418.615 1591.98 420.708C1600.46 426.906 1615.91 438.192 1631.39 455.742C1639.16 455.167 1643.32 453.86 1639.72 451.759L1639.65 451.723C1639.6 451.694 1639.55 451.665 1639.49 451.635L1639.34 451.444C1634.84 446.039 1630.38 441.365 1625.97 437.242Z" fill="#C6B29A"/>
<path fill-rule="evenodd" clip-rule="evenodd" d="M1537.73 270.206C1521.63 269.56 1486.85 283.119 1480.41 333.48C1476.89 360.965 1496.52 377.89 1522.27 365.117C1522.94 364.784 1523.66 364.437 1524.4 364.074C1531.29 360.703 1540.84 356.034 1546.1 349.622C1548.72 346.435 1550.99 343.429 1552.97 340.582C1559.75 330.798 1562.99 322.903 1564.34 316.092C1565.69 309.225 1565.13 303.459 1564.34 297.969C1562.62 286.069 1555.43 277.781 1548.04 273.519C1544.45 271.449 1540.81 270.329 1537.73 270.206ZM1537.73 285.702C1519.73 300.094 1543.31 328.315 1555.12 321.213C1561.56 317.339 1552.97 273.519 1537.73 285.702Z" fill="#125E47"/>
<path d="M1564.34 316.092C1562.99 322.903 1559.75 330.798 1552.97 340.582C1552.97 362.954 1562.81 374.112 1575.73 378.698C1582.59 381.13 1590.31 381.713 1597.9 381.14C1599.54 381.016 1601.17 380.838 1602.78 380.613C1616.16 378.751 1629.11 369.305 1635.57 356.724C1638.96 350.111 1640.56 342.631 1639.49 334.931C1639.43 334.448 1639.35 333.965 1639.26 333.48C1617.77 390.944 1543.53 356.724 1582.04 304.994C1574.9 307.004 1568.62 310.678 1564.34 316.092Z" fill="#125E47"/>
<path d="M1610.68 305.142C1600.85 307.733 1590.79 307.106 1582.04 304.994C1543.53 356.724 1617.77 390.944 1639.26 333.48C1638.79 330.91 1638.02 328.319 1636.92 325.732C1636 323.588 1634.85 321.591 1633.49 319.744C1632.12 318.405 1630.84 316.967 1629.68 315.428C1624.59 310.576 1617.91 307.124 1610.68 305.142Z" fill="url(#paint10_linear_0_1)"/>
<path d="M1548.04 273.519C1555.43 277.781 1562.62 286.069 1564.34 297.969C1568.88 300.67 1575.04 303.306 1582.04 304.994C1590.79 307.106 1600.85 307.733 1610.68 305.142C1614.78 304.061 1618.84 302.42 1622.75 300.094C1628.84 296.472 1634.56 291.187 1639.49 283.765C1642.61 279.085 1644.88 274.51 1644.22 270.206C1644.08 269.331 1643.89 268.47 1643.64 267.623C1623.96 305.071 1552.54 303.78 1571.22 244.845C1559.49 249.515 1550.39 258.668 1548.04 273.519Z" fill="#125E47"/>
<path d="M1644.22 270.206C1644.88 274.51 1642.61 279.085 1639.49 283.765C1634.56 291.187 1628.84 296.472 1622.75 300.094C1623.99 306.025 1626.41 311.122 1629.68 315.428C1631.07 316.761 1632.35 318.2 1633.49 319.744C1638.11 324.269 1643.81 327.664 1650 330.004C1655.48 329.135 1662.1 329.817 1667.62 333.825C1678.76 334.653 1689.83 332.695 1698.11 328.315C1704.72 324.817 1708.17 318.648 1708.87 311.528C1682.92 332.834 1624.68 317.984 1654.54 267.63C1651.22 268.166 1647.78 269.012 1644.22 270.206Z" fill="#125E47"/>
<path d="M1639.49 334.931C1640.56 342.631 1638.96 350.111 1635.57 356.724C1636.44 359.975 1637.85 362.603 1639.61 364.67C1643.61 369.341 1649.48 371.146 1655.4 370.803C1664.45 370.279 1673.63 364.729 1676.44 356.724C1670.88 359.952 1639.61 361.889 1650 330.004C1644.98 330.8 1640.91 332.896 1639.49 334.931Z" fill="#125E47"/>
<path d="M1522.27 365.117C1529.45 397.016 1542.35 418.898 1555.12 432.94C1567.17 446.178 1579.1 452.448 1586.04 453.572C1588.26 453.933 1590.64 454.257 1593.12 454.541C1550.78 418.747 1533.86 400.669 1533.85 376.215C1533.85 375.527 1534.54 375.057 1535.2 375.247C1542.83 377.434 1548.89 373.291 1551.05 370.803C1546.75 360.808 1546.1 352.833 1546.1 349.622C1540.84 356.034 1531.29 360.703 1524.4 364.074C1523.66 364.437 1522.94 364.784 1522.27 365.117Z" fill="#B09473"/>
<path fill-rule="evenodd" clip-rule="evenodd" d="M1639.34 451.444C1639.44 451.57 1639.57 451.677 1639.72 451.759L1639.65 451.723C1639.6 451.694 1639.55 451.665 1639.49 451.635L1639.34 451.444ZM1676.44 356.724C1670.88 359.952 1639.61 361.889 1650 330.004C1655.48 329.135 1662.1 329.817 1667.62 333.825C1671.1 336.342 1674.14 340.17 1676.21 345.748C1677.67 349.704 1677.6 353.423 1676.44 356.724ZM1633.49 319.744C1632.35 318.2 1631.07 316.761 1629.68 315.428C1630.84 316.967 1632.12 318.405 1633.49 319.744ZM1654.54 267.63C1624.68 317.984 1682.92 332.834 1708.87 311.528C1710.89 290.79 1689.51 261.985 1654.54 267.63ZM1571.22 244.845C1597.67 234.318 1637.5 246.555 1643.64 267.623C1623.96 305.071 1552.54 303.78 1571.22 244.845ZM1537.73 285.702C1519.73 300.094 1543.31 328.315 1555.12 321.213C1561.56 317.339 1552.97 273.519 1537.73 285.702Z" fill="url(#paint11_linear_0_1)"/>
<path d="M1655.4 370.803C1649.48 371.146 1643.61 369.341 1639.61 364.67C1637.7 370.823 1634.88 377.871 1631.39 383.841C1640.97 383.841 1650.81 380.412 1654.54 378.698C1654.87 376.164 1655.16 373.534 1655.4 370.803Z" fill="#6F6458"/>
<path d="M1575.73 378.698C1576.78 381.14 1578.57 386.055 1579.6 391.342C1590.42 394.639 1598.27 389.376 1600.85 386.333C1599.87 384.788 1598.89 383.061 1597.9 381.14C1590.31 381.713 1582.59 381.13 1575.73 378.698Z" fill="#6F6458"/>
<path d="M1579.6 391.342C1580.47 395.841 1580.78 400.609 1579.6 404.353C1583.76 407.26 1588.14 409.995 1592.69 412.838C1599.77 417.264 1607.27 421.95 1615.02 427.941C1618.62 430.725 1622.28 433.79 1625.97 437.242C1628.84 436.157 1632.8 433.3 1636.92 428.098C1643.88 419.289 1651.28 403.754 1654.54 378.698C1650.81 380.412 1640.97 383.841 1631.39 383.841C1623.67 397.047 1612.67 404.986 1600.85 386.333C1598.27 389.376 1590.42 394.639 1579.6 391.342Z" fill="#B09473"/>
<path d="M1615.02 456.014C1610.41 455.902 1605.57 455.658 1600.85 455.285C1598.22 455.077 1595.62 454.829 1593.12 454.541C1590.64 454.257 1588.26 453.933 1586.04 453.572C1579.1 452.448 1567.17 446.178 1555.12 432.94C1487.63 456.014 1523.25 479.026 1610.68 479.982C1698.11 480.938 1711.72 443.358 1636.92 428.098C1632.8 433.3 1628.84 436.157 1625.97 437.242C1630.38 441.365 1634.84 446.039 1639.34 451.444C1639.44 451.57 1639.57 451.677 1639.72 451.759C1643.32 453.86 1639.16 455.167 1631.39 455.742C1626.88 456.076 1621.15 456.162 1615.02 456.014Z" fill="black" fill-opacity="0.1"/>
<defs>
<linearGradient id="paint0_linear_0_1" x1="693.293" y1="132.661" x2="844.523" y2="132.661" gradientUnits="userSpaceOnUse">
<stop stop-color="#125E4D"/>
<stop offset="1" stop-color="#79C894"/>
</linearGradient>
<linearGradient id="paint1_linear_0_1" x1="693.293" y1="132.661" x2="844.523" y2="132.661" gradientUnits="userSpaceOnUse">
<stop stop-color="#125E4D"/>
<stop offset="1" stop-color="#79C894"/>
</linearGradient>
<linearGradient id="paint2_linear_0_1" x1="653.237" y1="306.452" x2="687.619" y2="201.157" gradientUnits="userSpaceOnUse">
<stop offset="0.125" stop-color="#4FA17C"/>
<stop offset="0.744792" stop-color="#93E096"/>
</linearGradient>
<linearGradient id="paint3_linear_0_1" x1="1808.93" y1="303.534" x2="1843.31" y2="198.239" gradientUnits="userSpaceOnUse">
<stop offset="0.125" stop-color="#4FA17C"/>
<stop offset="0.744792" stop-color="#93E096"/>
</linearGradient>
<linearGradient id="paint4_linear_0_1" x1="119.941" y1="235.507" x2="94.1694" y2="356.87" gradientUnits="userSpaceOnUse">
<stop stop-color="#97D29D"/>
<stop offset="1" stop-color="#2C7963"/>
</linearGradient>
<linearGradient id="paint5_linear_0_1" x1="119.941" y1="235.507" x2="94.1694" y2="356.87" gradientUnits="userSpaceOnUse">
<stop stop-color="#97D29D"/>
<stop offset="1" stop-color="#2C7963"/>
</linearGradient>
<linearGradient id="paint6_linear_0_1" x1="119.941" y1="235.507" x2="94.1694" y2="356.87" gradientUnits="userSpaceOnUse">
<stop stop-color="#97D29D"/>
<stop offset="1" stop-color="#2C7963"/>
</linearGradient>
<linearGradient id="paint7_linear_0_1" x1="2113.84" y1="75.5175" x2="2072.22" y2="271.237" gradientUnits="userSpaceOnUse">
<stop stop-color="#97D29D"/>
<stop offset="1" stop-color="#2C7963"/>
</linearGradient>
<linearGradient id="paint8_linear_0_1" x1="2113.84" y1="75.5175" x2="2072.22" y2="271.237" gradientUnits="userSpaceOnUse">
<stop stop-color="#97D29D"/>
<stop offset="1" stop-color="#2C7963"/>
</linearGradient>
<linearGradient id="paint9_linear_0_1" x1="2113.84" y1="75.5175" x2="2072.22" y2="271.237" gradientUnits="userSpaceOnUse">
<stop stop-color="#97D29D"/>
<stop offset="1" stop-color="#2C7963"/>
</linearGradient>
<linearGradient id="paint10_linear_0_1" x1="1533.09" y1="341.195" x2="1830.04" y2="312.219" gradientUnits="userSpaceOnUse">
<stop stop-color="#107859"/>
<stop offset="1" stop-color="#5B9117"/>
</linearGradient>
<linearGradient id="paint11_linear_0_1" x1="1533.09" y1="341.195" x2="1830.04" y2="312.219" gradientUnits="userSpaceOnUse">
<stop stop-color="#107859"/>
<stop offset="1" stop-color="#5B9117"/>
</linearGradient>
</defs>
</svg>
